# Rhino

o object_1
v -0.00275554508 -3.589128494 0.8052478433
v 2.224260569 -10.44803619 -2.907358408
v 4.451276302 -17.30694389 -6.619965076
v -0.00275554508 -3.589128494 0.8052478433
v 3.475492001 -10.44803619 -1.772511005
v 6.953739166 -17.30694389 -4.350269794
v -0.00275554508 -3.589128494 0.8052478433
v 4.197191715 -10.44803619 -0.2452231497
v 8.397138596 -17.30694389 -1.295694113
v -0.00275554508 -3.589128494 0.8052478433
v 4.27948761 -10.44803619 1.441989422
v 8.561730385 -17.30694389 2.07873106
v -0.00275554508 -3.589128494 0.8052478433
v 3.709850788 -10.44803619 3.032263756
v 7.422457218 -17.30694389 5.259279728
v -0.00275554508 -3.589128494 0.8052478433
v 2.575003386 -10.44803619 4.283495426
v 5.152762413 -17.30694389 7.761742592
v -0.00275554508 -3.589128494 0.8052478433
v 1.047715425 -10.44803619 5.005195141
v 2.098186493 -17.30694389 9.205142021
v -0.00275554508 -3.589128494 0.8052478433
v -0.6394971609 -10.44803619 5.087491035
v -1.27623868 -17.30694389 9.36973381
v -0.00275554508 -3.589128494 0.8052478433
v -2.229771614 -10.44803619 4.517854214
v -4.456787586 -17.30694389 8.230460167
v -0.00275554508 -3.589128494 0.8052478433
v -3.481003046 -10.44803619 3.383006811
v -6.95925045 -17.30694389 5.960765362
v -0.00275554508 -3.589128494 0.8052478433
v -4.202702999 -10.44803619 1.855718851
v -8.402649879 -17.30694389 2.906189919
v -0.00275554508 -3.589128494 0.8052478433
v -4.284998894 -10.44803619 0.1685062498
v -8.567241669 -17.30694389 -0.4682353437
v -0.00275554508 -3.589128494 0.8052478433
v -3.715361834 -10.44803619 -1.421768188
v -7.427968025 -17.30694389 -3.648784161
v -0.00275554508 -3.589128494 0.8052478433
v -2.580514431 -10.44803619 -2.67299962
v -5.15827322 -17.30694389 -6.151247025
v -0.00275554508 -3.589128494 0.8052478433
v -1.05322659 -10.44803619 -3.394699335
v -2.103697538 -17.30694389 -7.594646454
v -0.00275554508 -3.589128494 0.8052478433
v 0.6339860559 -10.44803619 -3.47699523
v 1.270727634 -17.30694389 -7.759238243
v -0.00275554508 -3.589128494 0.8052478433
v 2.224260569 -10.44803619 -2.907358408
v 4.451276302 -17.30694389 -6.619965076
v 4.451276302 -17.30694389 -6.619965076
v 6.953739166 -17.30694389 -4.350269794
v 8.397138596 -17.30694389 -1.295694113
v 8.561730385 -17.30694389 2.07873106
v 7.422457218 -17.30694389 5.259279728
v 5.152762413 -17.30694389 7.761742592
v 2.098186493 -17.30694389 9.205142021
v -1.27623868 -17.30694389 9.36973381
v -4.456787586 -17.30694389 8.230460167
v -6.95925045 -17.30694389 5.960765362
v -8.402649879 -17.30694389 2.906189919
v -8.567241669 -17.30694389 -0.4682353437
v -7.427968025 -17.30694389 -3.648784161
v -5.15827322 -17.30694389 -6.151247025
v -2.103697538 -17.30694389 -7.594646454
v 1.270727634 -17.30694389 -7.759238243
vn 0.4349967241 0.5337622762 -0.7251728773
vn 0.4349967241 0.5337622762 -0.7251728773
vn 0.4349967241 0.5337622762 -0.7251728773
vn 0.6793962121 0.5337622762 -0.5035063028
vn 0.6793962121 0.5337622762 -0.5035063028
vn 0.6793962121 0.5337622762 -0.5035063028
vn 0.82036376 0.5337622762 -0.2051855177
vn 0.82036376 0.5337622762 -0.2051855177
vn 0.82036376 0.5337622762 -0.2051855177
vn 0.8364384174 0.5337622762 0.1243729293
vn 0.8364384174 0.5337622762 0.1243729293
vn 0.8364384174 0.5337622762 0.1243729293
vn 0.7251728773 0.5337622762 0.4349967241
vn 0.7251728773 0.5337622762 0.4349967241
vn 0.7251728773 0.5337622762 0.4349967241
vn 0.5035063028 0.5337622762 0.6793962121
vn 0.5035063028 0.5337622762 0.6793962121
vn 0.5035063028 0.5337622762 0.6793962121
vn 0.2051855177 0.5337622762 0.82036376
vn 0.2051855177 0.5337622762 0.82036376
vn 0.2051855177 0.5337622762 0.82036376
vn -0.1243729293 0.5337622762 0.8364384174
vn -0.1243729293 0.5337622762 0.8364384174
vn -0.1243729293 0.5337622762 0.8364384174
vn -0.4349967241 0.5337622762 0.7251728773
vn -0.4349967241 0.5337622762 0.7251728773
vn -0.4349967241 0.5337622762 0.7251728773
vn -0.6793962121 0.5337622762 0.5035063028
vn -0.6793962121 0.5337622762 0.5035063028
vn -0.6793962121 0.5337622762 0.5035063028
vn -0.82036376 0.5337622762 0.2051855177
vn -0.82036376 0.5337622762 0.2051855177
vn -0.82036376 0.5337622762 0.2051855177
vn -0.8364384174 0.5337622762 -0.1243729293
vn -0.8364384174 0.5337622762 -0.1243729293
vn -0.8364384174 0.5337622762 -0.1243729293
vn -0.7251728773 0.5337622762 -0.4349967241
vn -0.7251728773 0.5337622762 -0.4349967241
vn -0.7251728773 0.5337622762 -0.4349967241
vn -0.5035063028 0.5337622762 -0.6793962121
vn -0.5035063028 0.5337622762 -0.6793962121
vn -0.5035063028 0.5337622762 -0.6793962121
vn -0.2051855177 0.5337622762 -0.82036376
vn -0.2051855177 0.5337622762 -0.82036376
vn -0.2051855177 0.5337622762 -0.82036376
vn 0.1243729293 0.5337622762 -0.8364384174
vn 0.1243729293 0.5337622762 -0.8364384174
vn 0.1243729293 0.5337622762 -0.8364384174
vn 0.4349967241 0.5337622762 -0.7251728773
vn 0.4349967241 0.5337622762 -0.7251728773
vn 0.4349967241 0.5337622762 -0.7251728773
vn 1.256423876e-15 -1 -2.094554719e-15
vn 1.313534014e-15 -1 -2.189761857e-15
vn 1.256423876e-15 -1 -2.094554719e-15
vn 1.256423876e-15 -1 -2.094554719e-15
vn 1.256423876e-15 -1 -2.094554719e-15
vn 1.313534014e-15 -1 -2.189761857e-15
vn 1.256423876e-15 -1 -2.094554719e-15
vn 1.256423876e-15 -1 -2.094554719e-15
vn 1.284978945e-15 -1 -2.142158394e-15
vn 1.256423876e-15 -1 -2.094554719e-15
vn 1.227868701e-15 -1 -2.046951255e-15
vn 1.31710341e-15 -1 -2.195712264e-15
vn 1.256423876e-15 -1 -2.094554719e-15
vn 1.288548342e-15 -1 -2.1481088e-15
vn 1.270701357e-15 -1 -2.118356556e-15
vn 1.256423876e-15 -1 -2.094554719e-15
f 5//5 2//2 1//1
f 8//8 5//5 4//4
f 11//11 8//8 7//7
f 14//14 11//11 10//10
f 17//17 14//14 13//13
f 20//20 17//17 16//16
f 23//23 20//20 19//19
f 26//26 23//23 22//22
f 29//29 26//26 25//25
f 32//32 29//29 28//28
f 35//35 32//32 31//31
f 38//38 35//35 34//34
f 41//41 38//38 37//37
f 44//44 41//41 40//40
f 47//47 44//44 43//43
f 50//50 47//47 46//46
f 5//5 6//6 3//3 2//2
f 11//11 12//12 9//9 8//8
f 8//8 9//9 6//6 5//5
f 17//17 18//18 15//15 14//14
f 23//23 24//24 21//21 20//20
f 20//20 21//21 18//18 17//17
f 14//14 15//15 12//12 11//11
f 26//26 27//27 24//24 23//23
f 32//32 33//33 30//30 29//29
f 38//38 39//39 36//36 35//35
f 35//35 36//36 33//33 32//32
f 44//44 45//45 42//42 41//41
f 50//50 51//51 48//48 47//47
f 47//47 48//48 45//45 44//44
f 41//41 42//42 39//39 38//38
f 29//29 30//30 27//27 26//26
f 63//63 61//61 62//62
f 60//60 61//61 63//63
f 63//63 56//56 60//60
f 58//58 59//59 60//60
f 58//58 56//56 57//57
f 60//60 56//56 58//58
f 64//64 67//67 63//63
f 67//67 65//65 66//66
f 63//63 67//67 56//56
f 52//52 53//53 67//67
f 54//54 55//55 56//56
f 67//67 54//54 56//56
f 54//54 67//67 53//53
f 65//65 67//67 64//64
